<?xml version="1.0" encoding="UTF-8" standalone="yes"?>
<!-- Created with sK1/UniConvertor (http://sk1project.org/) -->
<svg xmlns="http://www.w3.org/2000/svg" xmlns:xlink="http://www.w3.org/1999/xlink"
  width="200" height="200" viewBox="0 0 200 200"
  fill-rule="evenodd">
<g>
<path style="stroke:none; fill:#1b1716" d="M 212.995 471.458L 212.854 472.309L 212.655 473.046L 212.457 473.669L 212.23 474.18L 211.776 474.888L 211.238 475.483L 210.614 476.022L 209.906 476.447L 209.509 476.419L 209.14 476.362L 209.537 475.512L 209.906 474.633L 210.189 473.924L 210.359 473.216L 210.472 472.507L 210.501 471.855L 210.501 471.373L 210.472 470.75L 210.472 470.438L 210.472 470.183L 210.444 469.757L 210.472 469.162L 210.501 468.68L 210.898 469.049L 211.238 469.389L 211.521 469.644L 211.748 469.871L 212.031 470.154L 212.287 470.438L 212.513 470.665L 212.683 470.891L 212.825 471.061L 212.939 471.232L 212.995 471.345L 212.995 471.458zM 212.995 471.458L 212.995 471.458zM 216.539 474.52L 216.51 474.661L 216.454 474.832L 216.425 475.03L 216.368 475.313L 216.312 475.625L 216.255 475.965L 216.198 476.362L 216.142 476.816L 215.858 478.97L 215.66 481.011L 215.518 482.882L 215.49 484.639L 215.49 490.224L 215.49 495.836L 215.603 496.091L 215.688 496.375L 215.773 496.857L 215.83 497.452L 215.887 498.161L 215.887 498.954L 215.858 499.294L 215.802 499.606L 215.717 499.805L 215.575 499.975L 215.178 500.145L 214.923 500.173L 214.639 500.202L 213.959 500.173L 213.279 500.173L 213.137 500.031L 212.967 499.89L 212.74 499.72L 212.627 500.031L 212.542 500.4L 212.457 500.854L 212.4 501.364L 212.343 501.874L 212.287 502.271L 212.202 502.611L 212.117 502.838L 211.748 500.598L 211.351 498.387L 211.096 497.055L 210.813 495.78L 210.557 494.532L 210.274 493.342L 209.991 492.208L 209.679 491.102L 209.395 490.054L 209.083 489.033L 208.658 487.672L 208.205 486.425L 207.751 485.291L 207.298 484.271L 206.844 483.335L 206.362 482.513L 205.88 481.805L 205.398 481.209L 205.115 481.181L 205.115 489.798L 205.115 494.135L 205.115 498.444L 205.087 498.898L 205.002 499.096L 204.888 499.266L 204.718 499.408L 204.52 499.493L 204.293 499.55L 204.038 499.55L 203.187 499.55L 202.819 499.521L 202.507 499.38L 202.252 499.181L 202.11 498.869L 202.082 498.586L 202.054 498.161L 202.054 488.353L 202.054 478.573L 202.28 478.29L 202.564 478.035L 202.819 477.836L 202.989 477.666L 202.819 477.411L 202.677 477.241L 202.564 477.099L 202.507 477.014L 202.422 476.787L 202.394 476.447L 202.394 476.362L 202.45 476.22L 202.479 476.022L 202.564 475.767L 202.677 475.483L 202.791 475.115L 202.932 474.718L 203.102 474.265L 203.272 473.811L 203.443 473.414L 203.584 473.074L 203.726 472.819L 203.839 472.62L 203.953 472.479L 204.038 472.394L 204.123 472.394L 204.491 472.677L 204.831 473.017L 205.002 473.244L 205.228 473.528L 205.483 473.868L 205.767 474.265L 206.872 475.852L 207.836 477.524L 208.687 479.225L 209.424 480.983L 209.906 482.315L 210.331 483.761L 210.728 485.291L 211.096 486.935L 211.294 487.928L 211.465 488.806L 211.606 489.572L 211.748 490.224L 211.861 490.791L 211.975 491.216L 212.06 491.556L 212.117 491.783L 212.315 491.471L 212.457 491.074L 212.542 490.649L 212.57 490.167L 212.542 489.685L 212.485 489.061L 212.4 488.381L 212.343 487.814L 212.315 487.417L 212.287 487.162L 212.315 486.879L 212.315 486.709L 212.4 486.057L 212.485 485.461L 212.542 484.923L 212.598 484.469L 212.655 484.101L 212.712 483.789L 212.74 483.534L 212.769 483.364L 213.052 481.72L 213.392 480.217L 213.732 478.857L 214.101 477.666L 214.384 476.901L 214.639 476.22L 214.951 475.625L 215.235 475.115L 215.546 474.69L 215.887 474.321L 216.198 474.066L 216.539 473.868L 216.539 474.52zM 216.539 474.52L 216.539 474.52zM 235.757 497.14L 235.701 497.764L 235.587 498.302L 235.361 498.813L 235.049 499.266L 234.737 499.578L 234.425 499.805L 234.113 499.946L 233.802 500.003L 233.008 500.003L 232.469 499.918L 231.931 499.691L 231.42 499.323L 230.939 498.784L 230.485 498.104L 230.06 497.282L 229.663 496.318L 229.266 495.184L 228.983 494.277L 228.728 493.285L 228.472 492.236L 228.274 491.131L 228.076 489.94L 227.877 488.693L 227.707 487.389L 227.537 486L 227.31 483.165L 227.055 480.302L 227.027 480.387L 226.998 480.529L 226.942 480.784L 226.913 481.096L 226.828 481.521L 226.772 482.003L 226.687 482.57L 226.602 483.222L 226.46 484.101L 226.29 485.008L 226.091 485.972L 225.808 486.992L 225.524 488.013L 225.213 488.948L 224.872 489.827L 224.504 490.649L 224.192 491.301L 223.937 491.896L 223.682 492.406L 223.512 492.86L 223.342 493.2L 223.257 493.483L 223.172 493.71L 223.143 493.824L 224.277 493.852L 224.504 493.795L 224.787 493.625L 225.128 493.313L 225.524 492.86L 225.921 492.406L 226.233 492.123L 226.46 491.924L 226.63 491.868L 226.885 492.123L 227.112 492.35L 227.424 492.718L 227.849 493.285L 228.189 493.852L 228.416 494.391L 228.586 494.957L 222.548 494.731L 222.35 494.787L 222.094 494.986L 221.754 495.298L 221.329 495.751L 220.762 496.403L 220.252 496.998L 219.798 497.509L 219.373 497.991L 218.976 498.359L 218.636 498.671L 218.324 498.926L 218.041 499.096L 218.069 499.011L 218.183 498.841L 218.324 498.586L 218.523 498.217L 218.778 497.735L 219.118 497.14L 219.487 496.46L 219.912 495.694L 220.62 494.306L 221.244 492.888L 221.783 491.471L 222.236 490.025L 222.491 488.976L 222.718 487.899L 222.917 486.737L 223.058 485.575L 223.2 484.356L 223.285 483.08L 223.342 481.748L 223.37 480.416L 223.37 477.836L 223.342 477.383L 223.257 477.014L 223.087 476.702L 222.888 476.476L 222.633 476.306L 222.35 476.164L 222.009 476.05L 221.641 475.994L 221.329 475.965L 220.904 475.909L 220.479 475.852L 220.195 475.795L 219.997 475.767L 219.855 475.767L 219.742 475.739L 219.685 475.71L 219.487 475.597L 219.373 475.455L 219.288 475.285L 219.26 475.058L 219.317 474.888L 219.458 474.746L 219.685 474.69L 219.883 474.69L 226.743 475.569L 226.885 475.285L 226.97 475.058L 227.027 474.86L 227.055 474.69L 227.055 473.329L 227.055 471.969L 227.14 472.224L 227.225 472.564L 227.31 473.017L 227.367 473.556L 227.452 474.123L 227.565 474.69L 227.707 475.2L 227.877 475.682L 230.627 475.994L 230.882 475.965L 231.165 475.852L 231.506 475.625L 231.874 475.285L 232.271 474.945L 232.583 474.718L 232.838 474.576L 233.008 474.548L 233.376 475.087L 233.546 475.285L 233.66 475.483L 234 476.05L 234.283 476.561L 234.51 477.014L 234.624 477.439L 232.554 477.241L 230.173 476.986L 229.521 476.929L 228.983 476.872L 228.586 476.872L 228.331 476.929L 228.189 476.986L 228.076 477.128L 227.991 477.298L 227.962 477.553L 228.132 478.46L 228.246 479.197L 228.614 481.068L 228.983 482.797L 229.351 484.441L 229.72 485.972L 229.833 486.368L 229.946 486.794L 230.117 487.247L 230.287 487.757L 230.457 488.296L 230.683 488.863L 230.91 489.487L 231.165 490.139L 231.506 490.989L 231.817 491.698L 232.129 492.321L 232.413 492.832L 232.668 493.228L 232.894 493.512L 233.121 493.71L 233.291 493.767L 233.632 493.569L 233.858 493.342L 234.085 492.888L 234.255 492.35L 234.368 491.726L 234.397 491.017L 234.737 491.046L 235.219 493.342L 235.757 495.609L 235.757 497.14zM 235.757 497.14L 235.757 497.14zM 254.778 496.12L 254.75 496.602L 254.721 497.083L 254.551 497.906L 254.268 498.614L 253.899 499.209L 253.474 499.635L 252.992 499.946L 252.454 500.145L 251.858 500.202L 245.849 500.145L 239.896 500.06L 239.471 500.003L 239.046 499.776L 238.62 499.436L 238.224 498.983L 237.94 498.501L 237.713 497.962L 237.6 497.367L 237.543 496.743L 237.543 496.602L 237.572 496.431L 237.628 496.176L 237.685 495.865L 237.77 495.496L 237.883 495.071L 238.025 494.589L 238.167 494.022L 238.564 492.378L 238.904 490.706L 239.613 492.378L 239.981 493.2L 240.406 494.022L 240.633 494.362L 240.86 494.646L 241.115 494.872L 241.398 495.071L 241.654 495.241L 241.937 495.354L 242.476 495.439L 250.157 495.638L 250.299 495.638L 250.413 495.638L 250.781 495.638L 251.093 495.609L 251.376 495.553L 251.632 495.496L 251.943 495.354L 252.198 495.156L 252.34 494.872L 252.397 494.561L 252.368 494.277L 252.283 493.994L 252.142 493.71L 251.972 493.398L 251.717 493.115L 251.405 492.832L 251.065 492.52L 250.668 492.236L 249.959 491.811L 249.137 491.386L 248.173 490.932L 247.068 490.45L 246.387 490.167L 245.82 489.912L 245.31 489.713L 244.885 489.515L 244.573 489.373L 244.318 489.26L 244.148 489.175L 244.063 489.146L 243.383 488.778L 242.759 488.381L 242.164 487.984L 241.597 487.559L 241.087 487.134L 240.633 486.68L 240.208 486.227L 239.811 485.745L 239.357 485.093L 238.961 484.413L 238.62 483.704L 238.365 482.967L 238.139 482.173L 237.997 481.38L 237.912 480.529L 237.883 479.65L 237.883 477.978L 239.698 478.148L 239.698 477.638L 239.584 477.354L 239.443 477.043L 239.187 476.702L 238.904 476.362L 238.62 475.994L 238.365 475.597L 238.195 475.172L 238.082 474.718L 239.386 475.342L 240.208 475.739L 241.002 476.079L 241.767 476.391L 242.476 476.646L 243.524 476.986L 244.488 477.241L 245.395 477.411L 246.189 477.524L 246.529 477.581L 247.011 477.609L 247.465 477.638L 247.748 477.666L 248.117 477.694L 248.343 477.723L 248.542 477.751L 248.797 477.751L 249.08 477.694L 249.449 477.609L 249.846 477.496L 250.328 477.326L 250.838 477.128L 251.376 476.901L 252 476.617L 252.482 476.391L 253.02 476.135L 253.672 475.795L 254.409 475.398L 254.409 475.654L 254.409 475.88L 254.098 478.035L 253.899 479.083L 253.672 480.161L 253.474 480.784L 253.191 481.323L 252.85 481.748L 252.454 482.117L 251.972 482.372L 251.461 482.542L 250.894 482.655L 250.271 482.655L 249.676 482.627L 249.109 482.57L 248.315 482.372L 247.635 482.202L 247.011 482.003L 246.472 481.833L 245.764 481.578L 245.112 481.294L 244.517 481.011L 243.95 480.728L 243.411 480.416L 242.957 480.104L 242.532 479.764L 242.135 479.424L 241.909 479.424L 241.71 479.395L 241.71 479.934L 241.739 480.302L 241.795 480.671L 241.909 481.068L 242.05 481.436L 242.249 481.833L 242.476 482.23L 242.759 482.627L 243.071 483.024L 243.468 483.477L 243.921 483.874L 244.885 484.611L 245.991 485.235L 247.181 485.745L 249.165 486.425L 251.121 487.134L 251.575 487.332L 251.972 487.531L 252.709 488.041L 253.304 488.58L 253.757 489.203L 253.984 489.6L 254.211 490.054L 254.381 490.535L 254.523 491.074L 254.636 491.641L 254.721 492.265L 254.75 492.945L 254.778 493.654L 254.778 496.12zM 254.778 496.12L 254.778 496.12zM 273.402 486.794L 273.373 486.907L 273.232 487.049L 273.033 487.191L 272.75 487.332L 272.381 487.474L 271.928 487.616L 271.389 487.786L 270.765 487.956L 270.142 488.126L 269.603 488.324L 269.15 488.523L 268.781 488.721L 268.498 488.92L 268.299 489.118L 268.157 489.317L 268.129 489.543L 268.101 491.386L 268.072 492.293L 268.129 493.2L 268.214 493.937L 268.356 494.561L 268.469 495.099L 268.583 495.553L 268.724 496.091L 268.866 496.573L 268.98 496.97L 269.121 497.31L 269.235 497.565L 269.376 497.735L 269.49 497.849L 269.603 497.877L 269.745 497.82L 269.858 497.707L 270 497.48L 270.113 497.169L 270.227 496.772L 270.312 496.261L 270.425 495.694L 270.51 495.014L 270.567 494.476L 270.652 493.852L 270.709 493.058L 270.794 492.151L 271.105 492.151L 271.105 492.293L 271.134 492.491L 271.191 492.775L 271.276 493.115L 271.361 493.512L 271.474 493.965L 271.616 494.504L 271.757 495.099L 271.928 495.694L 272.041 496.205L 272.154 496.687L 272.268 497.112L 272.324 497.452L 272.381 497.735L 272.409 497.991L 272.409 498.161L 272.409 499.38L 272.353 499.861L 272.211 500.343L 271.984 500.825L 271.644 501.307L 271.191 501.789L 270.709 502.129L 270.17 502.356L 269.603 502.413L 269.008 502.356L 268.441 502.158L 267.902 501.817L 267.42 501.364L 266.967 500.797L 266.542 500.06L 266.173 499.209L 265.833 498.246L 265.436 496.772L 265.153 495.269L 264.983 493.739L 264.926 492.18L 264.926 489.883L 264.898 489.628L 264.813 489.402L 264.728 489.203L 264.643 489.061L 260.447 488.92L 260.22 489.005L 260.022 489.203L 259.909 489.487L 259.852 489.855L 259.852 492.265L 259.852 494.702L 259.852 499.55L 259.824 499.663L 259.767 499.748L 259.569 499.975L 259.257 500.117L 258.888 500.202L 258.463 500.23L 257.471 500.23L 257.244 500.202L 257.046 500.117L 256.876 500.003L 256.734 499.833L 256.535 499.38L 256.479 499.124L 256.45 498.841L 256.45 488.92L 256.45 479.027L 256.479 478.8L 256.507 478.63L 256.592 478.517L 256.706 478.403L 256.989 478.29L 257.357 478.261L 259.257 478.375L 259.965 478.998L 259.965 483.137L 259.965 487.276L 260.05 487.474L 260.164 487.587L 260.306 487.672L 260.447 487.701L 261.95 487.786L 263.452 487.814L 263.849 487.786L 264.132 487.729L 264.444 487.672L 264.699 487.587L 264.869 487.531L 264.926 487.446L 264.954 487.361L 264.954 487.162L 264.983 486.85L 265.039 486.368L 265.096 485.773L 265.153 485.065L 265.238 484.214L 265.323 483.222L 265.408 482.23L 265.465 481.38L 265.55 480.643L 265.606 480.047L 265.635 479.565L 265.691 479.197L 265.72 478.97L 265.748 478.857L 265.833 478.743L 266.003 478.602L 266.258 478.431L 266.627 478.261L 266.995 478.12L 267.307 478.006L 267.591 477.921L 267.817 477.921L 267.987 477.978L 268.243 478.12L 268.554 478.346L 268.951 478.658L 269.32 478.998L 269.603 479.31L 269.745 479.594L 269.802 479.877L 269.745 480.189L 269.603 480.557L 269.32 481.068L 269.093 481.436L 268.98 481.691L 268.923 481.805L 268.866 482.117L 268.781 482.457L 268.724 482.825L 268.668 483.279L 268.526 484.214L 268.413 485.15L 268.413 485.887L 268.413 486.624L 268.809 486.652L 269.376 486.255L 269.915 485.887L 270.368 485.546L 270.794 485.235L 271.049 485.065L 271.247 484.951L 271.417 484.895L 271.531 484.866L 271.644 484.923L 271.871 485.065L 272.154 485.291L 272.523 485.632L 272.92 486L 273.175 486.312L 273.345 486.567L 273.402 486.794zM 273.402 486.794L 273.402 486.794zM 283.493 475.2L 283.465 475.767L 283.323 476.306L 283.124 476.787L 282.841 477.241L 282.557 477.553L 282.217 477.751L 281.877 477.893L 281.48 477.921L 281.225 477.865L 280.97 477.751L 280.743 477.581L 280.545 477.326L 280.063 476.617L 279.609 475.937L 279.184 475.313L 278.787 474.746L 278.419 474.236L 278.079 473.754L 277.767 473.329L 277.483 472.932L 278.334 472.791L 278.787 472.677L 279.269 472.535L 279.723 472.394L 280.148 472.28L 280.517 472.224L 280.885 472.224L 281.424 472.28L 281.934 472.45L 282.359 472.706L 282.756 473.046L 283.068 473.499L 283.294 474.009L 283.436 474.548L 283.493 475.2zM 283.493 475.2L 283.493 475.2zM 290.75 500.372L 275.216 500.343L 275.244 500.031L 275.301 499.805L 275.357 499.635L 275.471 499.521L 275.613 499.465L 275.839 499.408L 276.123 499.38L 276.463 499.38L 279.184 499.38L 279.383 499.351L 279.553 499.266L 279.638 499.181L 279.808 498.983L 279.808 494.617L 279.808 490.224L 279.808 481.493L 279.723 481.238L 279.638 481.068L 279.524 480.869L 279.383 480.756L 279.241 480.671L 279.099 480.614L 276.038 480.557L 275.669 480.529L 275.386 480.387L 275.244 480.302L 275.159 480.189L 275.131 480.047L 275.102 479.849L 275.131 479.565L 275.244 479.395L 275.443 479.31L 275.698 479.31L 276.009 479.31L 276.236 479.31L 285.052 479.537L 288.425 477.95L 288.709 478.063L 289.02 478.29L 289.332 478.573L 289.672 478.942L 289.984 479.339L 290.268 479.735L 290.466 480.076L 290.636 480.416L 290.494 480.529L 290.381 480.614L 290.296 480.671L 290.239 480.671L 290.041 480.614L 289.757 480.586L 289.389 480.529L 288.935 480.501L 288.425 480.472L 287.858 480.444L 287.206 480.416L 286.469 480.416L 285.931 480.416L 285.42 480.416L 284.995 480.444L 284.598 480.501L 284.258 480.557L 284.003 480.643L 283.776 480.728L 283.606 480.841L 283.408 481.096L 283.294 481.436L 283.209 481.918L 283.181 482.542L 283.181 490.592L 283.181 498.699L 283.294 498.898L 283.408 499.039L 283.691 499.323L 283.805 499.38L 283.918 499.408L 284.57 499.408L 285.279 499.408L 285.619 499.38L 285.959 499.294L 286.299 499.153L 286.668 498.954L 288.425 497.877L 288.567 497.934L 288.794 498.076L 289.105 498.331L 289.502 498.699L 289.984 499.181L 290.353 499.606L 290.608 500.003L 290.75 500.372zM 290.75 500.372L 290.75 500.372zM 320.202 496.375L 320.145 497.282L 319.975 498.104L 319.72 498.784L 319.323 499.351L 318.898 499.776L 318.416 500.06L 317.877 500.258L 317.282 500.315L 305.376 500.343L 304.951 500.287L 304.526 500.117L 304.101 499.805L 303.676 499.408L 303.392 498.983L 303.194 498.501L 303.052 497.962L 303.024 497.395L 303.024 497.282L 303.052 497.112L 303.109 496.885L 303.165 496.602L 303.25 496.29L 303.364 495.893L 303.477 495.439L 303.619 494.957L 304.016 493.483L 304.356 491.953L 305.093 493.427L 305.461 494.164L 305.887 494.872L 306.113 495.184L 306.34 495.439L 306.595 495.638L 306.85 495.808L 307.389 496.035L 307.956 496.091L 311.754 496.063L 315.609 496.006L 315.751 496.006L 315.836 496.006L 316.205 496.006L 316.545 495.978L 316.828 495.921L 317.055 495.865L 317.395 495.723L 317.622 495.496L 317.764 495.241L 317.82 494.929L 317.792 494.646L 317.707 494.391L 317.594 494.107L 317.395 493.852L 317.169 493.569L 316.857 493.313L 316.517 493.058L 316.12 492.803L 315.439 492.435L 314.617 492.066L 313.654 491.669L 312.576 491.301L 311.896 491.074L 311.301 490.876L 310.791 490.706L 310.365 490.564L 310.025 490.45L 309.77 490.365L 309.6 490.309L 309.515 490.28L 308.211 489.628L 307.077 488.948L 306.085 488.239L 305.263 487.446L 304.809 486.879L 304.441 486.312L 304.101 485.688L 303.846 485.036L 303.619 484.328L 303.477 483.619L 303.392 482.882L 303.364 482.088L 303.364 480.586L 305.15 480.557L 305.15 480.132L 305.065 479.877L 304.895 479.594L 304.668 479.339L 304.384 479.055L 304.072 478.743L 303.846 478.403L 303.676 478.035L 303.562 477.638L 304.866 478.091L 306.482 478.573L 307.247 478.772L 307.984 478.942L 309.005 479.14L 309.969 479.282L 310.847 479.367L 311.669 479.367L 312.009 479.339L 312.463 479.339L 312.917 479.31L 313.228 479.31L 313.569 479.282L 313.824 479.282L 313.994 479.282L 314.249 479.254L 314.532 479.169L 314.901 479.055L 315.298 478.885L 315.78 478.687L 316.29 478.431L 316.828 478.148L 317.452 477.808L 317.906 477.553L 318.472 477.241L 319.096 476.844L 319.833 476.391L 319.833 476.617L 319.833 476.844L 319.521 478.942L 319.351 479.991L 319.124 481.039L 318.926 481.663L 318.643 482.202L 318.302 482.627L 317.906 483.024L 317.424 483.307L 316.913 483.506L 316.346 483.647L 315.723 483.704L 315.156 483.761L 314.589 483.732L 313.795 483.647L 313.115 483.534L 312.491 483.42L 311.953 483.307L 311.244 483.137L 310.592 482.967L 309.997 482.769L 309.43 482.542L 308.891 482.315L 308.438 482.06L 308.013 481.805L 307.616 481.521L 307.162 481.521L 307.162 482.003L 307.191 482.343L 307.247 482.683L 307.361 483.024L 307.531 483.364L 307.729 483.704L 307.956 484.044L 308.239 484.384L 308.58 484.724L 308.976 485.093L 309.402 485.433L 310.365 486.028L 311.443 486.51L 312.661 486.907L 314.617 487.389L 316.545 487.899L 317.424 488.239L 318.161 488.665L 318.756 489.175L 319.238 489.713L 319.465 490.082L 319.663 490.507L 319.833 490.961L 319.975 491.471L 320.06 492.038L 320.145 492.633L 320.173 493.285L 320.202 493.965L 320.202 496.375zM 320.202 496.375L 320.202 496.375zM 339.222 479.707L 338.967 480.444L 338.712 481.153L 338.542 481.833L 338.485 482.542L 338.485 483.449L 338.485 484.271L 338.485 484.98L 338.485 485.575L 338.485 486.085L 338.485 486.482L 338.485 486.765L 338.485 486.964L 338.485 487.417L 338.485 487.757L 338.372 487.899L 338.287 488.098L 338.202 488.466L 338.145 488.92L 338.088 489.487L 338.088 490.167L 338.088 491.216L 338.088 492.123L 338.088 492.945L 338.088 493.625L 338.088 494.164L 338.088 494.617L 338.088 494.929L 338.088 495.128L 338.088 495.298L 338.088 495.553L 338.088 495.893L 338.088 496.346L 338.088 496.857L 338.088 497.48L 338.088 498.189L 338.088 498.983L 338.003 498.983L 337.89 499.011L 337.833 499.096L 337.776 499.209L 337.748 499.408L 337.748 500.542L 337.691 501.619L 337.72 502.243L 337.748 502.951L 337.606 502.866L 337.465 502.724L 337.323 502.498L 337.153 502.214L 337.011 501.874L 336.841 501.477L 336.671 500.995L 336.501 500.485L 336.359 499.946L 336.217 499.493L 336.104 499.124L 335.991 498.813L 335.906 498.557L 335.82 498.387L 335.764 498.274L 335.707 498.246L 335.31 498.614L 334.885 498.983L 333.893 499.635L 333.326 499.89L 332.702 500.088L 332.022 500.202L 331.313 500.23L 330.52 500.202L 329.783 500.088L 329.102 499.89L 328.45 499.606L 327.827 499.238L 327.288 498.784L 326.778 498.246L 326.296 497.65L 325.928 497.027L 325.587 496.375L 325.304 495.638L 325.077 494.901L 324.879 494.079L 324.765 493.228L 324.68 492.321L 324.652 491.357L 324.652 490.564L 324.652 489.827L 324.652 489.175L 324.68 488.608L 324.68 488.069L 324.68 487.616L 324.709 487.247L 324.709 486.935L 324.737 485.802L 324.794 484.583L 324.765 484.554L 324.737 484.469L 324.595 484.186L 324.17 484.299L 323.802 484.384L 323.49 484.469L 323.206 484.554L 322.98 484.583L 322.809 484.639L 322.668 484.668L 322.583 484.668L 322.328 484.668L 322.157 484.668L 322.016 484.668L 321.902 484.696L 321.902 484.299L 322.923 483.222L 323.773 482.202L 324.142 481.691L 324.482 481.209L 324.765 480.699L 324.992 480.217L 325.474 478.942L 325.928 477.666L 326.296 477.921L 326.636 478.148L 326.891 478.346L 327.118 478.517L 327.657 478.998L 328.025 479.424L 328.139 479.594L 328.224 479.792L 328.28 479.962L 328.28 480.132L 328.025 483.08L 327.742 486.028L 327.713 486.34L 327.713 486.765L 327.713 487.814L 327.713 488.353L 327.713 488.835L 327.742 489.997L 327.827 491.074L 327.94 492.094L 328.11 493.058L 328.365 493.937L 328.62 494.759L 328.961 495.496L 329.357 496.176L 329.754 496.715L 330.18 497.197L 330.633 497.622L 331.115 497.962L 331.654 498.217L 332.192 498.387L 332.787 498.501L 333.411 498.501L 333.978 498.416L 334.205 498.359L 334.403 498.331L 334.913 498.217L 335.31 498.161L 335.565 498.104L 335.707 498.076L 335.707 497.14L 335.65 496.913L 335.594 496.573L 335.537 496.148L 335.48 495.581L 335.395 495.043L 335.367 494.561L 335.31 494.192L 335.31 493.88L 335.31 486.794L 335.31 479.707L 335.48 479.452L 335.622 479.225L 335.735 479.055L 335.849 478.913L 336.189 478.545L 336.557 478.261L 336.926 478.091L 337.323 478.006L 337.578 478.035L 337.833 478.148L 338.145 478.318L 338.485 478.602L 338.825 478.885L 339.052 479.169L 339.165 479.452L 339.222 479.707zM 339.222 479.707L 339.222 479.707zM 358.157 495.553L 358.157 496.091L 358.101 496.602L 358.044 497.055L 357.931 497.509L 357.676 498.274L 357.279 498.926L 356.854 499.38L 356.372 499.72L 355.833 499.946L 355.238 500.003L 343.304 500.145L 342.879 500.088L 342.454 499.89L 342.028 499.578L 341.632 499.124L 341.348 498.671L 341.121 498.161L 341.008 497.594L 340.951 496.97L 340.951 496.857L 340.98 496.658L 341.036 496.431L 341.093 496.12L 341.178 495.751L 341.291 495.354L 341.433 494.872L 341.575 494.334L 341.972 492.718L 342.283 491.046L 343.02 492.633L 343.389 493.427L 343.814 494.164L 344.041 494.476L 344.268 494.759L 344.523 494.986L 344.778 495.184L 345.061 495.326L 345.317 495.411L 345.883 495.468L 353.565 495.241L 353.707 495.241L 353.82 495.241L 354.189 495.213L 354.501 495.184L 354.784 495.128L 355.011 495.043L 355.351 494.872L 355.606 494.617L 355.72 494.334L 355.776 493.994L 355.748 493.682L 355.663 493.37L 355.55 493.087L 355.351 492.775L 355.124 492.491L 354.813 492.18L 354.472 491.924L 354.076 491.641L 353.395 491.244L 352.573 490.876L 351.609 490.479L 350.532 490.082L 349.852 489.855L 349.285 489.657L 348.775 489.487L 348.35 489.345L 348.009 489.232L 347.754 489.146L 347.584 489.09L 347.499 489.061L 346.819 488.75L 346.167 488.438L 345.572 488.098L 345.005 487.729L 344.494 487.361L 344.013 486.964L 343.587 486.567L 343.191 486.142L 342.737 485.575L 342.368 484.951L 342.028 484.299L 341.773 483.591L 341.546 482.882L 341.405 482.117L 341.32 481.294L 341.291 480.444L 341.291 478.828L 343.077 478.715L 343.077 478.205L 342.992 477.95L 342.822 477.666L 342.595 477.383L 342.312 477.099L 342.028 476.816L 341.802 476.476L 341.632 476.079L 341.518 475.654L 342.142 475.852L 342.794 476.05L 344.409 476.476L 345.175 476.646L 345.912 476.787L 346.961 476.929L 347.924 477.014L 348.803 477.014L 349.625 476.957L 349.965 476.929L 350.419 476.872L 350.872 476.844L 351.184 476.787L 351.553 476.759L 351.78 476.759L 351.978 476.731L 352.233 476.674L 352.517 476.589L 352.885 476.419L 353.282 476.22L 353.735 475.965L 354.246 475.654L 354.784 475.285L 355.408 474.888L 355.861 474.576L 356.428 474.18L 357.052 473.669L 357.789 473.102L 357.789 473.414L 357.789 473.669L 357.477 476.05L 357.307 477.213L 357.08 478.403L 356.882 479.112L 356.598 479.707L 356.258 480.246L 355.861 480.671L 355.38 481.011L 354.869 481.266L 354.302 481.465L 353.679 481.55L 353.112 481.606L 352.573 481.635L 351.78 481.578L 351.071 481.493L 350.447 481.408L 349.909 481.294L 349.2 481.153L 348.548 480.983L 347.953 480.784L 347.386 480.586L 346.847 480.359L 346.394 480.132L 345.969 479.877L 345.572 479.594L 345.09 479.622L 345.09 480.161L 345.118 480.529L 345.175 480.869L 345.288 481.238L 345.458 481.606L 345.657 481.975L 345.912 482.315L 346.195 482.683L 346.535 483.024L 347.386 483.761L 348.35 484.356L 349.427 484.866L 350.617 485.235L 352.573 485.688L 353.565 485.915L 354.529 486.198L 354.983 486.34L 355.408 486.539L 356.117 486.992L 356.712 487.531L 357.194 488.126L 357.42 488.523L 357.619 489.005L 357.789 489.515L 357.931 490.082L 358.016 490.677L 358.101 491.357L 358.129 492.066L 358.157 492.832L 358.157 494.192L 358.157 495.553zM 358.157 495.553L 358.157 495.553zM 376.809 483.024L 376.781 483.194L 376.639 483.364L 376.441 483.562L 376.157 483.761L 375.789 483.987L 375.335 484.243L 374.797 484.498L 374.173 484.781L 373.55 485.065L 373.011 485.376L 372.557 485.66L 372.189 485.943L 371.906 486.198L 371.707 486.482L 371.565 486.765L 371.537 487.02L 371.509 489.175L 371.509 490.252L 371.537 491.329L 371.622 492.208L 371.735 492.973L 371.877 493.597L 371.991 494.107L 372.132 494.759L 372.246 495.326L 372.387 495.78L 372.529 496.176L 372.643 496.46L 372.784 496.687L 372.898 496.8L 373.039 496.857L 373.153 496.8L 373.294 496.63L 373.408 496.375L 373.521 495.978L 373.635 495.496L 373.748 494.901L 373.861 494.192L 373.946 493.37L 374.003 492.718L 374.06 491.896L 374.117 490.961L 374.202 489.855L 374.513 489.827L 374.513 489.997L 374.542 490.252L 374.598 490.564L 374.683 490.961L 374.768 491.443L 374.882 492.009L 374.995 492.633L 375.165 493.37L 375.335 494.079L 375.449 494.731L 375.562 495.298L 375.676 495.78L 375.732 496.233L 375.789 496.573L 375.817 496.857L 375.817 497.083L 375.817 498.557L 375.761 499.181L 375.619 499.776L 375.392 500.372L 375.08 500.939L 374.854 501.25L 374.627 501.534L 374.372 501.761L 374.117 501.959L 373.861 502.101L 373.606 502.214L 373.323 502.271L 373.039 502.299L 372.444 502.243L 371.849 502.016L 371.339 501.619L 370.828 501.109L 370.375 500.4L 369.95 499.578L 369.581 498.586L 369.241 497.452L 368.844 495.723L 368.561 493.994L 368.391 492.208L 368.334 490.394L 368.334 487.729L 368.306 487.417L 368.22 487.162L 368.135 486.964L 368.05 486.822L 363.855 487.106L 363.742 487.134L 363.628 487.191L 363.543 487.304L 363.43 487.446L 363.317 487.814L 363.26 488.211L 363.26 493.682L 363.26 499.124L 363.175 499.351L 362.948 499.606L 362.665 499.776L 362.296 499.89L 361.843 499.918L 360.879 499.946L 360.652 499.918L 360.454 499.833L 360.283 499.72L 360.142 499.521L 360.028 499.294L 359.943 499.039L 359.887 498.728L 359.858 498.416L 359.858 492.973L 359.858 487.531L 359.858 476.674L 359.887 476.447L 359.915 476.249L 360 476.079L 360.113 475.937L 360.397 475.739L 360.765 475.654L 362.636 475.427L 363.345 475.965L 363.345 480.614L 363.345 485.291L 363.43 485.49L 363.572 485.632L 363.685 485.717L 363.855 485.717L 365.357 485.632L 366.86 485.49L 367.257 485.405L 367.54 485.291L 367.852 485.178L 368.107 485.093L 368.249 484.98L 368.334 484.895L 368.334 484.809L 368.362 484.583L 368.391 484.186L 368.447 483.647L 368.476 482.939L 368.561 482.088L 368.617 481.096L 368.702 479.934L 368.787 478.772L 368.872 477.751L 368.929 476.901L 369.014 476.164L 369.043 475.597L 369.099 475.143L 369.128 474.86L 369.156 474.718L 369.241 474.576L 369.411 474.406L 369.666 474.18L 370.006 473.896L 370.375 473.641L 370.715 473.443L 370.998 473.301L 371.225 473.244L 371.395 473.272L 371.622 473.386L 371.962 473.584L 372.359 473.868L 372.756 474.208L 373.011 474.548L 373.181 474.86L 373.238 475.172L 373.181 475.569L 373.011 476.022L 372.869 476.391L 372.728 476.702L 372.614 476.957L 372.501 477.184L 372.444 477.383L 372.387 477.524L 372.331 477.609L 372.331 477.666L 372.246 478.006L 372.189 478.431L 372.104 478.913L 372.047 479.452L 371.82 481.748L 371.82 482.627L 371.82 483.506L 372.217 483.449L 372.813 482.91L 373.323 482.4L 373.805 481.918L 374.202 481.493L 374.428 481.266L 374.627 481.096L 374.797 480.983L 374.91 480.926L 375.052 480.983L 375.279 481.124L 375.562 481.38L 375.959 481.72L 376.328 482.117L 376.611 482.457L 376.753 482.769L 376.809 483.024zM 376.809 483.024L 376.809 483.024zM 386.901 466.469L 386.872 467.235L 386.759 467.943L 386.532 468.624L 386.249 469.276L 385.965 469.729L 385.625 470.069L 385.285 470.324L 384.888 470.438L 384.633 470.438L 384.378 470.353L 384.151 470.154L 383.953 469.871L 383.471 469.049L 383.017 468.312L 382.592 467.603L 382.195 466.98L 381.827 466.384L 381.487 465.874L 381.175 465.392L 380.92 464.995L 381.317 464.854L 381.742 464.627L 382.195 464.372L 382.649 464.06L 383.131 463.748L 383.556 463.521L 383.924 463.351L 384.293 463.238L 384.831 463.209L 385.313 463.294L 385.767 463.493L 386.164 463.833L 386.476 464.315L 386.702 464.91L 386.844 465.647L 386.901 466.469zM 386.901 466.469L 386.901 466.469zM 394.157 499.408L 378.595 499.691L 378.652 499.323L 378.709 499.011L 378.765 498.813L 378.879 498.671L 379.02 498.586L 379.247 498.501L 379.531 498.472L 379.871 498.444L 382.592 498.387L 382.791 498.359L 382.961 498.217L 382.989 498.189L 383.046 498.132L 383.131 497.991L 383.216 497.849L 383.216 492.236L 383.216 486.624L 383.216 475.427L 383.102 475.115L 383.046 474.888L 382.932 474.661L 382.791 474.52L 382.649 474.435L 382.479 474.435L 380.948 474.661L 379.446 474.86L 379.077 474.86L 378.765 474.775L 378.652 474.69L 378.567 474.548L 378.539 474.378L 378.51 474.151L 378.539 473.811L 378.652 473.556L 378.85 473.414L 379.134 473.357L 379.446 473.301L 379.672 473.272L 388.488 471.855L 391.833 469.077L 392.117 469.219L 392.4 469.446L 392.712 469.786L 393.052 470.211L 393.392 470.693L 393.647 471.175L 393.874 471.628L 394.044 472.082L 393.902 472.252L 393.789 472.394L 393.704 472.479L 393.647 472.479L 393.449 472.45L 393.165 472.422L 392.797 472.422L 392.343 472.45L 391.833 472.479L 391.238 472.564L 390.586 472.62L 389.849 472.734L 389.31 472.847L 388.828 472.961L 388.403 473.074L 388.006 473.216L 387.694 473.357L 387.411 473.528L 387.184 473.698L 387.014 473.896L 386.816 474.236L 386.674 474.746L 386.589 475.37L 386.561 476.164L 386.561 486.765L 386.561 497.367L 386.731 497.622L 386.816 497.792L 386.957 497.991L 387.099 498.161L 387.213 498.246L 387.298 498.274L 388.687 498.217L 388.998 498.189L 389.339 498.076L 389.707 497.877L 390.076 497.594L 391.833 496.091L 391.975 496.148L 392.23 496.375L 392.542 496.715L 392.939 497.169L 393.392 497.792L 393.761 498.359L 394.016 498.898L 394.157 499.408z"/>
<path style="stroke:none; fill:#e10014" d="M 303.392 332.306L 301.38 367.71L 299.735 367.682L 298.148 367.654L 294.775 367.71L 292.762 332.306L 295.427 332.192L 298.091 332.164L 300.756 332.192L 303.392 332.306zM 303.392 332.306L 303.392 332.306zM 311.528 368.306L 319.38 334.658L 321.987 335.339L 324.539 336.076L 327.033 336.869L 329.528 337.748L 318.302 369.156L 314.929 368.702L 311.528 368.306zM 311.528 368.306L 311.528 368.306zM 328.791 371.48L 344.041 344.608L 346.309 345.969L 348.52 347.414L 350.702 348.917L 352.828 350.476L 335.679 374.003L 334.29 373.408L 332.957 372.869L 331.625 372.387L 330.378 371.962L 328.791 371.48zM 328.791 371.48L 328.791 371.48zM 344.551 380.665L 364.649 361.162L 366.406 363.118L 368.107 365.131L 369.751 367.2L 371.339 369.298L 350.646 385.228L 346.167 385.455L 346.11 384.803L 345.997 384.151L 345.855 383.528L 345.685 382.932L 345.175 381.77L 344.551 380.665zM 344.551 380.665L 344.551 380.665zM 372.076 386.759L 379.559 382.847L 380.665 385.2L 381.742 387.581L 382.706 389.991L 383.641 392.457L 375.222 395.717L 375.222 393.817L 375.165 392.769L 374.995 391.776L 374.74 390.813L 374.372 389.877L 373.918 388.998L 373.38 388.205L 372.756 387.439L 372.076 386.759zM 372.076 386.759L 372.076 386.759zM 372.132 410.769L 387.609 407.65L 388.006 410.202L 388.318 412.753L 388.573 415.332L 388.743 417.94L 375.222 419.102L 375.222 417.883L 375.165 416.863L 374.995 415.843L 374.74 414.879L 374.4 413.943L 373.946 413.065L 373.408 412.243L 372.813 411.477L 372.132 410.769zM 372.132 410.769L 372.132 410.769zM 344.863 429.732L 388.29 433.559L 387.95 436.11L 387.524 438.661L 387.071 441.184L 386.504 443.679L 346.195 435.458L 346.195 432.85L 346.167 432.397L 346.11 431.972L 345.997 431.546L 345.827 431.15L 345.43 430.413L 344.863 429.732zM 344.863 429.732L 344.863 429.732zM 345.657 444.274L 377.291 456.633L 369.156 457.852L 360.992 458.929L 342.227 449.036L 343.332 447.987L 343.814 447.42L 344.268 446.825L 344.693 446.23L 345.061 445.606L 345.373 444.954L 345.657 444.274zM 345.657 444.274L 345.657 444.274zM 334.318 453.713L 343.474 460.772L 339.165 461.14L 334.828 461.452L 328.819 455.613L 330.378 455.131L 331.313 454.819L 332.277 454.479L 333.298 454.11L 334.318 453.713zM 334.318 453.713L 334.318 453.713zM 321.109 457.455L 324.454 462.104L 318.756 462.359L 316.431 458.22L 318.784 457.852L 321.109 457.455zM 321.109 457.455L 321.109 457.455zM 309.912 458.957L 311.216 462.586L 306.68 462.699L 305.858 459.241L 309.912 458.957zM 309.912 458.957L 309.912 458.957zM 299.962 459.439L 300.161 462.756L 295.937 462.756L 296.135 459.439L 298.148 459.439L 299.962 459.439zM 299.962 459.439L 299.962 459.439zM 290.239 459.241L 289.446 462.699L 284.91 462.614L 286.214 458.957L 290.239 459.241zM 290.239 459.241L 290.239 459.241zM 279.694 458.192L 277.342 462.359L 274.479 462.246L 271.616 462.104L 275.017 457.427L 277.342 457.852L 279.694 458.192zM 279.694 458.192L 279.694 458.192zM 267.279 455.556L 261.184 461.509L 256.847 461.197L 252.454 460.828L 261.808 453.657L 262.885 454.082L 263.934 454.479L 264.926 454.819L 265.89 455.131L 267.279 455.556zM 267.279 455.556L 267.279 455.556zM 253.956 448.923L 234.709 459.043L 226.346 458.022L 217.956 456.86L 250.611 444.161L 250.866 444.841L 251.178 445.493L 251.546 446.117L 251.943 446.712L 252.397 447.307L 252.879 447.874L 253.956 448.923zM 253.956 448.923L 253.956 448.923zM 250.101 435.373L 209.622 443.537L 209.083 441.043L 208.602 438.548L 208.205 435.997L 207.865 433.446L 250.101 429.789L 250.101 435.373zM 250.101 435.373L 250.101 435.373zM 220.904 418.989L 207.439 417.827L 207.609 415.219L 207.865 412.639L 208.205 410.088L 208.602 407.537L 222.038 410.258L 221.613 410.712L 221.244 411.222L 220.932 411.732L 220.649 412.299L 220.422 412.895L 220.28 413.518L 220.167 414.142L 220.139 414.794L 220.139 415.956L 220.195 416.778L 220.337 417.543L 220.592 418.28L 220.904 418.989zM 220.904 418.989L 220.904 418.989zM 220.734 395.518L 212.57 392.343L 213.506 389.877L 214.498 387.468L 215.546 385.087L 216.652 382.734L 233.093 391.408L 226.346 391.748L 225.439 391.833L 224.561 392.06L 223.739 392.4L 222.973 392.854L 222.293 393.392L 221.669 394.044L 221.159 394.753L 220.734 395.518zM 220.734 395.518L 220.734 395.518zM 250.101 388.658L 224.901 369.213L 226.488 367.115L 228.132 365.046L 229.861 363.033L 231.619 361.077L 251.745 380.665L 251.376 381.26L 251.065 381.855L 250.781 382.507L 250.554 383.131L 250.356 383.811L 250.214 384.491L 250.129 385.2L 250.101 385.937L 250.101 388.658zM 250.101 388.658L 250.101 388.658zM 260.589 374.003L 243.439 350.419L 245.565 348.86L 247.748 347.357L 249.959 345.912L 252.227 344.551L 267.477 371.48L 265.89 371.962L 264.643 372.387L 263.339 372.869L 261.978 373.408L 260.589 374.003zM 260.589 374.003L 260.589 374.003zM 277.937 369.156L 266.74 337.72L 269.235 336.841L 271.757 336.047L 274.309 335.31L 276.888 334.63L 284.712 368.306L 281.31 368.702L 277.937 369.156z"/>
<path style="stroke:none; fill:#0f0d04" d="M 365.811 412.469L 365.811 412.469L 365.528 412.469L 226.545 412.668L 226.12 412.696L 225.723 412.809L 225.354 413.008L 225.043 413.263L 224.787 413.575L 224.589 413.943L 224.476 414.34L 224.419 414.765L 224.419 415.928L 224.476 416.353L 224.589 416.778L 224.787 417.146L 225.043 417.487L 225.354 417.77L 225.723 417.969L 226.12 418.11L 226.545 418.167L 226.545 418.167L 365.528 425.764L 365.811 425.792L 365.811 425.792L 366.35 425.764L 366.86 425.707L 367.342 425.594L 367.824 425.424L 368.277 425.197L 368.702 424.97L 369.099 424.658L 369.468 424.346L 369.78 423.978L 370.091 423.581L 370.346 423.156L 370.573 422.702L 370.743 422.22L 370.857 421.71L 370.942 421.2L 370.97 420.661L 370.97 417.855L 370.942 417.317L 370.857 416.806L 370.743 416.296L 370.573 415.814L 370.346 415.332L 370.091 414.907L 369.78 414.482L 369.468 414.113L 369.099 413.745L 368.702 413.433L 368.277 413.15L 367.824 412.923L 367.342 412.753L 366.86 412.611L 366.35 412.498L 365.811 412.469zM 365.811 412.469L 365.811 412.469zM 226.545 418.167L 226.545 418.167z"/>
<path style="stroke:none; fill:#0f0d04" d="M 365.811 388.687L 365.811 388.687L 365.528 388.687L 345.969 389.707L 345.969 401.924L 365.528 402.009L 365.811 402.009L 365.811 402.009L 366.35 401.953L 366.86 401.868L 367.342 401.726L 367.824 401.528L 368.277 401.301L 368.702 401.017L 369.099 400.706L 369.468 400.365L 369.78 399.997L 370.091 399.572L 370.346 399.146L 370.573 398.665L 370.743 398.183L 370.857 397.672L 370.942 397.162L 370.97 396.624L 370.97 393.789L 370.942 393.25L 370.857 392.74L 370.743 392.23L 370.573 391.776L 370.346 391.323L 370.091 390.898L 369.78 390.501L 369.468 390.132L 369.099 389.792L 368.702 389.509L 368.277 389.254L 367.824 389.055L 367.342 388.885L 366.86 388.772L 366.35 388.715L 365.811 388.687zM 365.811 388.687L 365.811 388.687zM 341.915 389.934L 226.545 396L 226.12 396.057L 225.723 396.198L 225.354 396.397L 225.043 396.68L 224.787 396.992L 224.589 397.389L 224.476 397.786L 224.419 398.239L 224.419 399.373L 224.476 399.827L 224.589 400.224L 224.787 400.592L 225.043 400.904L 225.354 401.159L 225.723 401.357L 226.12 401.471L 226.545 401.499L 226.545 401.499L 341.915 401.924L 341.915 389.934zM 341.915 389.934L 341.915 389.934zM 226.545 401.499L 226.545 401.499z"/>
<path style="stroke:none; fill:#0f0d04" d="M 254.381 441.184L 254.438 441.893L 254.608 442.63L 254.891 443.31L 255.26 444.019L 255.77 444.699L 256.337 445.351L 257.046 446.003L 257.811 446.627L 258.69 447.25L 259.654 447.874L 260.702 448.441L 261.865 449.008L 263.083 449.575L 264.359 450.085L 265.748 450.595L 267.194 451.077L 268.724 451.559L 270.312 451.984L 271.956 452.409L 273.685 452.806L 275.443 453.175L 277.285 453.487L 279.156 453.798L 281.112 454.082L 283.096 454.337L 285.137 454.564L 287.206 454.734L 289.332 454.904L 291.487 455.017L 293.669 455.102L 295.909 455.159L 298.148 455.187L 300.416 455.159L 302.627 455.102L 304.809 455.017L 306.992 454.904L 309.09 454.734L 311.187 454.564L 313.228 454.337L 315.213 454.082L 317.14 453.798L 319.039 453.487L 320.854 453.175L 322.639 452.806L 324.368 452.409L 326.013 451.984L 327.6 451.559L 329.131 451.077L 330.576 450.595L 331.937 450.085L 333.241 449.575L 334.46 449.008L 335.594 448.441L 336.671 447.874L 337.635 447.25L 338.513 446.627L 339.279 446.003L 339.987 445.351L 340.554 444.699L 341.065 444.019L 341.433 443.31L 341.717 442.63L 341.887 441.893L 341.943 441.184L 341.943 432.822L 254.381 425.169L 254.381 441.184zM 254.381 441.184L 254.381 441.184zM 341.943 424.091L 341.943 385.909L 341.887 385.2L 341.717 384.463L 341.433 383.783L 341.065 383.074L 340.554 382.394L 339.987 381.742L 339.279 381.09L 338.513 380.466L 337.635 379.843L 336.671 379.219L 335.594 378.652L 334.46 378.085L 333.241 377.518L 331.937 377.008L 330.576 376.498L 329.131 376.016L 327.6 375.534L 326.013 375.109L 324.368 374.683L 322.639 374.287L 320.854 373.918L 319.039 373.606L 317.14 373.294L 315.213 373.011L 313.228 372.756L 311.187 372.529L 309.09 372.359L 306.992 372.189L 304.809 372.076L 302.627 371.991L 300.416 371.934L 298.148 371.906L 295.909 371.934L 293.669 371.991L 291.487 372.076L 289.332 372.189L 287.206 372.359L 285.137 372.529L 283.096 372.756L 281.112 373.011L 279.156 373.294L 277.285 373.606L 275.443 373.918L 273.685 374.287L 271.956 374.683L 270.312 375.109L 268.724 375.534L 267.194 376.016L 265.748 376.498L 264.359 377.008L 263.083 377.518L 261.865 378.085L 260.702 378.652L 259.654 379.219L 258.69 379.843L 257.811 380.466L 257.046 381.09L 256.337 381.742L 255.77 382.394L 255.26 383.074L 254.891 383.783L 254.608 384.463L 254.438 385.2L 254.381 385.909L 254.381 419.301L 341.943 424.091z"/>
<path style="stroke:none; fill:#ffffff" d="M 298.148 374.372L 298.148 374.372L 295.569 374.4L 293.017 374.457L 290.494 374.57L 288 374.74L 285.562 374.939L 283.153 375.194L 280.8 375.477L 278.532 375.817L 276.35 376.186L 274.28 376.583L 272.296 377.036L 270.425 377.518L 268.668 378.028L 267.052 378.567L 265.55 379.162L 264.189 379.757L 262.97 380.381L 261.921 381.005L 261.014 381.657L 260.277 382.337L 259.71 383.017L 259.285 383.726L 259.03 384.406L 258.945 385.115L 258.945 385.115L 259.03 385.824L 259.285 386.532L 259.71 387.241L 260.277 387.921L 261.014 388.602L 261.921 389.254L 262.97 389.877L 264.189 390.501L 265.55 391.096L 267.052 391.691L 268.668 392.23L 270.425 392.74L 272.296 393.222L 274.28 393.676L 276.35 394.072L 278.532 394.441L 280.8 394.781L 283.153 395.065L 285.562 395.32L 288 395.518L 290.494 395.688L 293.017 395.802L 295.569 395.858L 298.148 395.887L 300.728 395.858L 303.279 395.802L 305.802 395.688L 308.296 395.518L 310.734 395.32L 313.143 395.065L 315.468 394.781L 317.735 394.441L 319.918 394.072L 322.016 393.676L 324 393.222L 325.871 392.74L 327.628 392.23L 329.244 391.691L 330.746 391.096L 332.107 390.501L 333.326 389.877L 334.375 389.254L 335.282 388.602L 336.019 387.921L 336.586 387.241L 337.011 386.532L 337.266 385.824L 337.351 385.115L 337.266 384.406L 337.011 383.726L 336.586 383.017L 336.019 382.337L 335.282 381.657L 334.375 381.005L 333.326 380.381L 332.107 379.757L 330.746 379.162L 329.244 378.567L 327.628 378.028L 325.871 377.518L 324 377.036L 322.016 376.583L 319.918 376.186L 317.735 375.817L 315.468 375.477L 313.143 375.194L 310.734 374.939L 308.296 374.74L 305.802 374.57L 303.279 374.457L 300.728 374.4L 298.148 374.372z"/>
<path style="stroke:none; fill:#c70114" d="M 298.148 378.425L 298.148 378.425L 294.945 378.482L 291.827 378.652L 290.296 378.794L 288.794 378.935L 287.348 379.134L 285.931 379.332L 284.57 379.559L 283.266 379.814L 282.019 380.098L 280.857 380.409L 279.78 380.721L 278.759 381.061L 277.824 381.43L 276.973 381.798L 276.236 382.195L 275.556 382.592L 275.017 382.989L 274.535 383.414L 274.195 383.839L 273.912 384.265L 273.77 384.69L 273.713 385.143L 273.713 385.143L 273.77 385.597L 273.912 386.022L 274.195 386.447L 274.535 386.872L 275.017 387.298L 275.556 387.723L 276.236 388.12L 276.973 388.517L 277.824 388.885L 278.759 389.254L 279.78 389.565L 280.857 389.906L 282.019 390.189L 283.266 390.472L 284.57 390.728L 285.931 390.954L 287.348 391.153L 288.794 391.351L 290.296 391.493L 291.827 391.635L 294.945 391.805L 298.148 391.861L 301.351 391.805L 304.469 391.635L 306 391.493L 307.502 391.351L 308.948 391.153L 310.365 390.954L 311.726 390.728L 313.03 390.472L 314.277 390.189L 315.439 389.906L 316.517 389.565L 317.537 389.254L 318.472 388.885L 319.323 388.517L 320.06 388.12L 320.74 387.723L 321.279 387.298L 321.761 386.872L 322.101 386.447L 322.384 386.022L 322.526 385.597L 322.583 385.143L 322.526 384.69L 322.384 384.265L 322.101 383.839L 321.761 383.414L 321.279 382.989L 320.74 382.564L 320.06 382.167L 319.323 381.77L 318.472 381.402L 317.537 381.033L 316.517 380.721L 315.439 380.381L 314.277 380.098L 313.03 379.814L 311.726 379.559L 310.365 379.332L 308.948 379.134L 307.502 378.935L 306 378.794L 304.469 378.652L 301.351 378.482L 298.148 378.425z"/>
<path style="stroke:none; fill:#e10014" d="M 184.167 452.693L 190.658 454.309L 197.291 455.839L 204.009 457.228L 210.841 458.532L 217.757 459.751L 224.787 460.828L 231.902 461.82L 239.074 462.699L 246.302 463.465L 253.587 464.145L 260.929 464.712L 268.299 465.165L 275.726 465.506L 283.153 465.732L 290.608 465.874L 298.063 465.902L 305.291 465.817L 312.52 465.647L 319.691 465.364L 326.891 464.995L 334.035 464.513L 341.121 463.946L 348.18 463.266L 355.181 462.501L 362.126 461.622L 369.014 460.63L 375.789 459.553L 382.507 458.391L 389.14 457.115L 395.66 455.726L 402.066 454.252L 408.359 452.693L 401.924 454.847L 395.376 456.86L 388.772 458.731L 382.082 460.46L 375.307 462.076L 368.504 463.521L 361.616 464.854L 354.671 466.044L 347.698 467.121L 340.668 468.028L 333.609 468.822L 326.523 469.446L 319.408 469.984L 312.265 470.353L 305.121 470.58L 297.978 470.693L 290.608 470.665L 283.238 470.466L 275.896 470.126L 268.554 469.672L 261.241 469.049L 253.956 468.283L 246.699 467.376L 239.499 466.328L 232.356 465.137L 225.241 463.776L 218.211 462.302L 211.238 460.658L 204.35 458.901L 197.518 456.973L 194.145 455.953L 190.8 454.904L 187.483 453.827L 184.167 452.693z"/>
<path style="stroke:none; fill:#e10014" d="M 298.091 509.754L 283.635 509.698L 269.15 509.528L 254.721 509.272L 240.378 508.932L 233.263 508.734L 226.205 508.535L 219.175 508.337L 212.23 508.11L 205.313 507.883L 198.482 507.685L 191.735 507.458L 185.046 507.232L 191.735 507.005L 198.482 506.778L 205.313 506.58L 212.23 506.353L 219.175 506.126L 226.205 505.928L 233.263 505.729L 240.378 505.559L 254.721 505.219L 269.15 504.964L 283.635 504.794L 298.091 504.737L 312.548 504.794L 327.005 504.964L 341.433 505.219L 355.748 505.559L 362.863 505.729L 369.921 505.928L 376.951 506.126L 383.924 506.353L 390.841 506.58L 397.672 506.778L 404.419 507.005L 411.109 507.232L 404.419 507.458L 397.672 507.685L 390.841 507.883L 383.924 508.11L 376.951 508.337L 369.921 508.535L 362.863 508.734L 355.748 508.932L 341.433 509.272L 327.005 509.528L 312.548 509.698L 298.091 509.754z"/>
</g>
</svg>
