<svg xmlns="http://www.w3.org/2000/svg" xmlns:xlink="http://www.w3.org/1999/xlink"><symbol id="arrow" viewBox="0 0 18 36"><g fill="none">
<path d="M1 1L17 17L1 33" stroke="#000000"/>
</g></symbol><symbol id="footer-subscribe" viewBox="0 0 32 32"><g fill="none">
<path d="M11.2969 25.0313C10.5 27.4063 8.60939 29.1407 5.81252 30.0782C4.53602 30.5014 3.20383 30.7331 1.85939 30.7657C1.69363 30.7657 1.53466 30.6999 1.41745 30.5827C1.30024 30.4654 1.23439 30.3065 1.23439 30.1407C1.26698 28.7963 1.49867 27.4641 1.92189 26.1876C2.85939 23.3907 4.59377 21.5001 6.96877 20.7032C7.12625 20.6541 7.29674 20.6693 7.44309 20.7454C7.58943 20.8215 7.69976 20.9524 7.75002 21.1095C7.77682 21.1863 7.78794 21.2678 7.78272 21.3491C7.7775 21.4303 7.75605 21.5097 7.71964 21.5826C7.68323 21.6554 7.63259 21.7202 7.57071 21.7731C7.50884 21.826 7.43698 21.866 7.35939 21.8907C3.46877 23.1876 2.68752 27.7501 2.51564 29.4845C4.25002 29.3126 8.81252 28.5313 10.1094 24.6407C10.1341 24.5631 10.1741 24.4913 10.227 24.4294C10.2799 24.3675 10.3447 24.3169 10.4176 24.2805C10.4904 24.2441 10.5698 24.2226 10.651 24.2174C10.7323 24.2122 10.8138 24.2233 10.8906 24.2501C11.0477 24.3003 11.1786 24.4107 11.2547 24.557C11.3308 24.7034 11.346 24.8739 11.2969 25.0313ZM27.0469 12.9063L25.4688 14.4845V24.3282C25.4676 24.8209 25.2709 25.2929 24.9219 25.6407L19.8594 30.7032C19.6853 30.8779 19.4783 31.0162 19.2503 31.1101C19.0223 31.204 18.7778 31.2516 18.5313 31.2501C18.3465 31.246 18.1629 31.2198 17.9844 31.172C17.662 31.0734 17.3725 30.889 17.1468 30.6385C16.9211 30.3881 16.7677 30.081 16.7031 29.7501L15.4219 23.3751L8.62502 16.5782L2.26564 15.297C1.93191 15.235 1.62152 15.0828 1.36811 14.8569C1.11471 14.6311 0.927975 14.3401 0.828144 14.0157C0.728665 13.6901 0.719739 13.3435 0.802321 13.0132C0.884903 12.6828 1.05588 12.3812 1.29689 12.1407L6.35939 7.07821C6.70716 6.72923 7.17922 6.53254 7.67189 6.53133H17.5156L19.0938 4.95321C23.3594 0.687584 27.7031 0.796959 29.375 1.04696C29.7715 1.10852 30.1381 1.29462 30.4218 1.57832C30.7055 1.86202 30.8916 2.22862 30.9531 2.62508C31.2031 4.29696 31.3125 8.64071 27.0469 12.9063ZM2.50002 14.0782L8.71877 15.3282L16.2656 7.78133H7.67189C7.59012 7.78163 7.50924 7.79839 7.43408 7.8306C7.35892 7.86281 7.29101 7.90982 7.23439 7.96883L2.18752 13.0157C2.11046 13.0971 2.05612 13.1973 2.02992 13.3063C2.00372 13.4153 2.00657 13.5293 2.0382 13.6368C2.06983 13.7444 2.12913 13.8417 2.21017 13.9192C2.29121 13.9966 2.39115 14.0515 2.50002 14.0782ZM24.2188 15.7345L16.6719 23.2813L17.9219 29.5001C17.9486 29.6089 18.0035 29.7089 18.0809 29.7899C18.1584 29.871 18.2557 29.9303 18.3633 29.9619C18.4708 29.9935 18.5848 29.9964 18.6938 29.9702C18.8028 29.944 18.903 29.8896 18.9844 29.8126L24.0313 24.7657C24.0903 24.7091 24.1373 24.6412 24.1695 24.566C24.2017 24.4909 24.2185 24.41 24.2188 24.3282V15.7345ZM26.1719 12.0157C30.0313 8.15633 29.9375 4.29696 29.7031 2.81258C29.6868 2.68153 29.6272 2.55968 29.5338 2.46629C29.4404 2.3729 29.3186 2.31332 29.1875 2.29696C27.7031 2.06258 23.8438 1.96883 19.9844 5.82821L18.2031 7.60946L9.81252 16.0001L16 22.1876L24.3906 13.797L26.1719 12.0157Z" fill="#E35F00"/>
</g></symbol><symbol id="icon-close" viewBox="0 0 20 20"><g fill="none"><path d="M.293 18.291a1 1 0 101.414 1.414L10 11.413l8.292 8.292a1 1 0 101.414-1.414l-8.292-8.292 8.292-8.292A1 1 0 1018.291.293L9.999 8.585 1.707.293A1 1 0 10.293 1.707L8.585 10 .293 18.291z"/></g></symbol><symbol id="search-icon" viewBox="0 0 20 20"><g fill="none">
<path d="M18.4444 20L11.4444 13C10.8889 13.4444 10.25 13.7963 9.52778 14.0556C8.80556 14.3148 8.03704 14.4444 7.22222 14.4444C5.2037 14.4444 3.49556 13.7456 2.09778 12.3478C0.699259 10.9493 0 9.24074 0 7.22222C0 5.2037 0.699259 3.49519 2.09778 2.09667C3.49556 0.698889 5.2037 0 7.22222 0C9.24074 0 10.9493 0.698889 12.3478 2.09667C13.7456 3.49519 14.4444 5.2037 14.4444 7.22222C14.4444 8.03704 14.3148 8.80556 14.0556 9.52778C13.7963 10.25 13.4444 10.8889 13 11.4444L20 18.4444L18.4444 20ZM7.22222 12.2222C8.61111 12.2222 9.79185 11.7363 10.7644 10.7644C11.7363 9.79185 12.2222 8.61111 12.2222 7.22222C12.2222 5.83333 11.7363 4.65259 10.7644 3.68C9.79185 2.70815 8.61111 2.22222 7.22222 2.22222C5.83333 2.22222 4.65259 2.70815 3.68 3.68C2.70815 4.65259 2.22222 5.83333 2.22222 7.22222C2.22222 8.61111 2.70815 9.79185 3.68 10.7644C4.65259 11.7363 5.83333 12.2222 7.22222 12.2222Z" fill="#515151"/>
</g></symbol></svg>